PathFileType	4	(X/Y/Z)	 s04c0402.trc
DataRate	CameraRate	NumFrames	NumMarkers	Units	OrigDataRate	OrigDataStartFrame	OrigNumFrames
200	200	5	50	mm	200	1001	2000
Frame#	Time	racr			lacr			c7			jug			rlel			rdr			llel			ldr			s2			lic			ric			lasi			rasi			rpsi			lpsi			rgt			lgt			rth1			rth2			rth3			rth4			rlfc			rmfc			rsh1			rsh2			rsh3			rsh4			rlmal			rmmal			rcal			rtoe			rmt5			lth1			lth2			lth4			lth3			llfc			lmfc			lsh1			lsh2			lsh3			lsh4			llmal			lmmal			lcal			ltoe			lmt5			SBIKE			LBIKE			RBIKE			
		X1	Y1	Z1	X2	Y2	Z2	X3	Y3	Z3	X4	Y4	Z4	X5	Y5	Z5	X6	Y6	Z6	X7	Y7	Z7	X8	Y8	Z8	X9	Y9	Z9	X10	Y10	Z10	X11	Y11	Z11	X12	Y12	Z12	X13	Y13	Z13	X14	Y14	Z14	X15	Y15	Z15	X16	Y16	Z16	X17	Y17	Z17	X18	Y18	Z18	X19	Y19	Z19	X20	Y20	Z20	X21	Y21	Z21	X22	Y22	Z22	X23	Y23	Z23	X24	Y24	Z24	X25	Y25	Z25	X26	Y26	Z26	X27	Y27	Z27	X28	Y28	Z28	X29	Y29	Z29	X30	Y30	Z30	X31	Y31	Z31	X32	Y32	Z32	X33	Y33	Z33	X34	Y34	Z34	X35	Y35	Z35	X36	Y36	Z36	X37	Y37	Z37	X38	Y38	Z38	X39	Y39	Z39	X40	Y40	Z40	X41	Y41	Z41	X42	Y42	Z42	X43	Y43	Z43	X44	Y44	Z44	X45	Y45	Z45	X46	Y46	Z46	X47	Y47	Z47	X48	Y48	Z48	X49	Y49	Z49	X50	Y50	Z50	
1001	5.0050	845.776661	1235.845126	-54.955169	822.376704	1246.170951	-387.510555	866.345280	1334.033803	-230.614023	784.049602	1196.083191	-238.432402	548.346033	1144.847358	78.221054	695.311615	946.569523	-54.509023	603.589276	1159.755873	-572.869710	701.219826	945.225276	-459.410030	270.786576	1300.078820	-298.657760	443.286723	1227.793646	-416.937351	382.465904	1304.806727	-111.221067	456.906989	1177.838919	-364.365959	421.859386	1232.488081	-139.992908	302.535759	1343.375538	-260.012990	317.250764	1326.814338	-330.686124	337.515713	1267.610798	-92.530120	366.238573	1149.283564	-441.046634	437.765584	1142.307348	-72.304285	509.955205	1091.611117	-77.752330	548.682874	1015.770852	-76.749987	533.836855	1113.153014	-98.686871	630.214626	893.843197	-99.996485	613.839529	876.860411	-214.039758	541.545886	807.597642	-80.557330	496.669599	728.917186	-94.817683	420.871147	689.737291	-104.102541	522.712265	708.529614	-115.671890	320.743323	570.615761	-117.019034	346.414484	568.532859	-199.393786	246.548893	573.021479	-156.771420	500.124623	413.946083	-143.409934	428.899681	423.388555	-89.391450	373.301900	1064.539707	-451.428052	404.739569	983.441674	-449.031827	437.171089	987.236298	-434.606064	391.393529	895.411905	-456.365375	381.143340	729.579534	-443.938504	391.875306	691.924762	-333.746465	315.895510	619.081993	-469.860179	282.588359	540.996493	-451.207824	214.066485	484.424375	-453.960387	305.578661	526.832920	-422.162472	122.749388	364.670063	-455.446223	116.019221	366.768144	-365.950342	55.494275	403.227495	-416.971262	230.462193	153.525865	-395.784396	163.687068	186.104179	-463.508465	-176.867148	937.192705	-277.945758	-3.270422	86.539666	-484.575352	-15.014908	80.627920	-84.031971	
1002	5.0100	845.789440	1234.168674	-55.846265	821.602888	1246.867959	-388.486215	866.492317	1333.822783	-231.208291	783.429075	1196.391775	-239.853675	547.783862	1145.014320	77.432150	694.822714	946.405187	-54.910623	602.547399	1159.919486	-573.130868	701.935560	945.831304	-459.976283	271.474467	1302.975238	-297.164967	442.945563	1230.379896	-416.007768	382.779738	1305.104628	-109.896868	458.398767	1180.412543	-364.670356	421.570688	1233.183214	-139.115346	303.421403	1345.932329	-258.150858	317.503971	1329.627885	-328.291286	337.163804	1267.828174	-91.485341	367.948408	1152.154598	-440.537745	435.371267	1140.038088	-71.569106	506.857967	1088.354143	-76.860353	544.277976	1011.414423	-76.425439	531.182727	1109.280597	-97.406147	624.248055	887.166253	-101.004004	606.938474	871.413859	-213.507075	537.274547	798.002446	-80.365467	494.380211	718.589589	-94.999677	418.745652	678.185244	-104.400037	520.300032	699.314196	-116.689205	321.056276	558.438309	-117.318439	346.689639	556.881173	-199.846938	246.828369	557.928379	-157.164102	506.066763	408.638607	-142.766591	435.063690	416.041098	-88.335473	377.323203	1066.457094	-450.317868	411.131200	986.301141	-447.513997	443.274388	990.690858	-431.082173	400.371424	897.951587	-455.612974	392.402425	732.452421	-443.292336	401.933685	694.884068	-333.164917	324.810638	623.808308	-469.771108	288.731312	546.801480	-450.716186	218.452088	492.347320	-453.919008	310.713840	532.313663	-421.331941	122.722533	374.538830	-455.522906	117.103079	376.052407	-366.921754	55.988452	415.153896	-417.521135	222.825299	159.724438	-394.494392	158.067432	194.719711	-462.643146	-176.659669	937.316467	-277.440012	-3.209431	86.867825	-484.654919	-14.985592	80.619153	-83.998033	
1003	5.0150	845.809810	1232.766989	-56.926506	820.849676	1247.643451	-389.619190	866.588018	1333.669148	-231.893793	782.812482	1196.727311	-241.253216	547.394416	1145.255692	76.531794	694.691383	946.496563	-55.292286	601.465068	1160.129808	-573.455161	703.963781	947.329018	-461.908188	272.138186	1305.569215	-295.510990	442.624560	1232.805700	-415.048782	383.044256	1304.971321	-108.603956	458.757154	1181.886618	-364.232307	421.361758	1233.701805	-138.237012	304.211129	1348.029284	-256.270317	317.994134	1332.286301	-326.105443	336.840475	1267.462077	-90.314382	369.569269	1154.910460	-439.953666	432.776378	1136.907125	-70.728218	503.299843	1083.285314	-76.238126	539.580104	1006.495854	-76.335441	528.368455	1104.843650	-95.983564	616.492538	881.343466	-98.608655	599.975650	865.446656	-213.224718	532.457701	788.573246	-80.785251	491.459451	708.022319	-95.676203	416.706301	665.941662	-105.098882	517.375639	689.748358	-117.863619	321.778221	545.544705	-117.577945	347.575736	544.632991	-200.455524	247.997267	543.028642	-157.517657	511.509478	401.941636	-142.344242	440.294714	407.473040	-87.977662	381.259414	1068.326655	-449.558452	417.576009	989.128471	-445.917555	449.253103	994.639265	-429.452398	409.213898	900.564616	-454.789447	403.916693	735.449793	-442.686343	411.667943	698.048744	-332.331453	333.631018	628.384810	-469.240439	295.021044	552.840920	-450.049689	222.984376	500.570838	-453.662758	316.490945	538.259449	-420.467637	123.329196	384.833829	-455.447029	116.952597	386.560835	-366.734322	57.113587	427.448516	-417.293609	215.591328	166.253281	-394.374460	152.155980	203.716928	-462.429688	-176.400124	937.498950	-277.012024	-3.197299	87.060708	-484.601941	-14.987237	80.640311	-83.950922	
1004	5.0200	845.990627	1231.792553	-58.042909	820.095188	1248.421625	-390.795279	866.676322	1333.541116	-232.522022	782.242408	1197.045236	-242.335433	547.251551	1145.610384	75.622386	694.573080	946.559882	-55.601774	600.395692	1160.344473	-573.815791	704.837985	948.085814	-462.737668	272.922886	1307.453877	-294.220081	442.328450	1235.197006	-414.166548	383.371753	1304.381735	-107.222074	459.050885	1183.744098	-363.694913	421.235447	1234.029070	-137.365386	304.772855	1349.640504	-254.433892	321.403592	1334.380828	-326.620010	335.785681	1266.112293	-89.473996	372.319375	1158.330321	-441.094953	430.176579	1133.169996	-69.857585	499.447868	1078.764202	-74.781973	534.651507	1001.062784	-76.237880	525.486890	1099.976140	-94.436457	610.159336	873.970190	-99.447451	593.081951	858.975967	-213.041224	527.567887	778.673555	-81.219772	488.552950	697.280594	-96.665747	414.843777	653.340953	-105.956350	514.538849	679.788656	-119.209866	323.055580	532.099477	-117.770864	348.875762	532.234044	-201.124382	249.292701	528.683307	-157.893669	516.508011	394.400476	-142.100439	445.121716	398.362571	-87.864796	385.545862	1070.299560	-448.930438	424.004755	992.171597	-444.494746	455.240272	998.505671	-427.469425	418.981953	903.677512	-452.716138	415.099311	738.455293	-441.755584	421.155951	701.319113	-331.352412	342.372358	632.829515	-468.545581	301.363029	558.643121	-449.265739	227.547283	508.815582	-453.124174	321.533982	543.805035	-418.977192	124.365732	394.943269	-454.835146	117.823548	396.966218	-366.850355	59.089669	439.749616	-416.502970	208.954313	172.814257	-394.595256	146.722131	212.840744	-462.439377	-176.089215	937.698172	-276.584101	-3.189739	87.271496	-484.508481	-14.960800	80.675038	-83.931319	
1005	5.0250	846.138049	1230.897677	-59.189540	819.358383	1249.204597	-392.067480	866.763639	1333.349585	-234.127198	781.531227	1197.359138	-243.929527	547.246112	1146.042531	74.680384	694.605339	946.534566	-55.978898	599.307091	1160.512081	-574.196086	705.527288	948.677774	-463.469396	273.445675	1308.950270	-293.107702	441.876730	1237.856678	-414.224332	383.753723	1303.535997	-105.655162	459.368044	1185.280530	-363.450511	421.194604	1234.150221	-136.507949	305.070387	1350.808772	-252.328184	322.012035	1336.296642	-324.664668	335.107888	1264.353059	-88.283507	373.771949	1160.697001	-439.439924	427.395810	1128.994658	-68.872899	495.965611	1073.624856	-74.313571	529.867526	995.333853	-76.208060	522.524753	1094.610791	-92.767405	603.358012	866.642250	-99.868353	586.389954	852.209434	-212.983521	522.292302	768.950384	-81.419887	485.359748	686.579355	-97.427525	412.918510	640.703603	-106.640096	511.759686	669.991202	-120.218413	324.612881	518.726996	-117.999980	350.292861	519.973366	-201.710554	250.879848	514.782728	-158.367555	521.040288	385.984099	-142.098011	449.316078	388.836370	-87.806932	389.772902	1072.356596	-448.061501	430.278143	995.314810	-443.106125	461.054860	1002.516764	-425.675444	428.316930	906.729443	-451.470096	426.092069	741.406357	-440.750827	430.332553	704.716316	-330.200823	350.715220	637.314498	-467.697394	307.484944	564.404607	-448.271416	232.213490	516.719464	-452.442308	326.926055	548.919224	-417.527430	125.849128	405.200363	-454.388053	119.453221	406.681403	-367.009795	61.551791	451.315910	-415.917648	203.185076	179.569799	-394.800110	142.270099	221.961443	-462.329069	-175.822634	937.882987	-276.145555	-3.163774	87.432694	-484.455746	-14.957160	80.743746	-83.875095	
